<svg xmlns="http://www.w3.org/2000/svg" xml:space="preserve" width="2000" height="1500" data-id="lg_n6ceWzXFsH5iuGZswT" data-version="1" viewBox="0 0 2000 1500"><path fill="#4a5d5e" stroke="transparent" d="M0 0h2000v1500H0z"/><g data-padding="20"><g transform="translate(-1573.657 -1194.784)scale(2.50954)"><path fill="#d2dbc8" d="M858.08 805.815q-9.27 0-15.63-2.95-6.37-2.95-9.64-8.05-3.28-5.1-3.28-11.75h14.88q0 2.62 1.46 4.87 1.45 2.25 4.44 3.6 3 1.36 7.77 1.36 4.31 0 7.21-1.12 2.9-1.13 4.4-3.14t1.5-4.63q0-3.28-2.81-5.2t-9.08-2.48l-5.15-.47q-10.2-.84-16.29-6.36-6.08-5.53-6.08-14.61 0-6.55 3.13-11.32 3.14-4.78 8.76-7.35 5.61-2.58 13.29-2.58 8.05 0 13.81 2.76 5.75 2.77 8.84 7.77 3.09 5.01 3.09 11.75h-14.98q0-2.52-1.21-4.63-1.22-2.11-3.61-3.42-2.38-1.31-5.94-1.31-3.37 0-5.67 1.13-2.29 1.12-3.41 3.04-1.13 1.92-1.13 4.16 0 2.91 2.06 5.06t6.74 2.53l5.25.46q7.49.66 13.2 3.23 5.71 2.58 8.94 7.02 3.23 4.45 3.23 10.82 0 6.55-3.42 11.46-3.42 4.92-9.69 7.63-6.27 2.72-14.98 2.72m80.71-1.79H926.9v-15.16h-2.53v-16.48q0-3.93-1.87-5.9-1.87-1.96-5.99-1.96-2.06 0-5.43.09t-6.93.28-6.46.37v-12.63q2.15-.19 5.06-.38 2.9-.18 5.99-.28 3.09-.09 5.8-.09 7.86 0 13.25 2.24 5.38 2.25 8.19 6.79t2.81 11.66Zm-28.27 1.31q-5.53 0-9.69-1.96-4.17-1.97-6.51-5.67t-2.34-8.84q0-5.62 2.9-9.23 2.9-3.6 8.15-5.33 5.24-1.73 12.07-1.73h10.96v8.33h-11.05q-3.93 0-6.04 1.92t-2.11 5.19q0 3.09 2.11 5.01t6.04 1.92q2.53 0 4.54-.89t3.32-3.04 1.5-5.99l3.56 3.74q-.47 5.34-2.58 8.99-2.1 3.65-5.8 5.62-3.7 1.96-9.03 1.96m56.72-1.3h-15.08v-68.34h15.08Zm0-57.29h-21.16v-11.05h21.16Zm38.76 59.07q-6.74 0-11.98-2.11-5.24-2.1-8.85-5.75-3.6-3.66-5.47-8.38-1.88-4.73-1.88-9.97v-2.16q0-5.33 1.92-10.15t5.62-8.47q3.7-3.66 8.94-5.76 5.24-2.11 11.7-2.11 6.65 0 11.84 2.11 5.2 2.1 8.85 5.76 3.65 3.65 5.62 8.47 1.96 4.82 1.96 10.15v2.16q0 5.24-1.87 9.97-1.87 4.72-5.48 8.38-3.6 3.65-8.84 5.75-5.24 2.11-12.08 2.11m0-12.64q4.4 0 7.3-1.87 2.91-1.87 4.45-5.24t1.54-7.49q0-4.4-1.59-7.73-1.59-3.32-4.54-5.28-2.95-1.97-7.16-1.97-4.12 0-7.11 1.97-3 1.96-4.54 5.28-1.55 3.33-1.55 7.73 0 4.12 1.5 7.49t4.49 5.24q3 1.87 7.21 1.87m58.23 12.45q-10.95 0-17.13-4.49t-6.56-12.64h13.3q.37 2.43 2.95 4.35 2.57 1.92 7.72 1.92 3.93 0 6.51-1.35 2.57-1.36 2.57-3.89 0-2.25-1.97-3.6-1.96-1.36-7.02-1.92l-4.02-.38q-9.27-.93-13.9-5.15-4.64-4.21-4.64-10.76 0-5.43 2.72-9.08 2.71-3.65 7.53-5.53 4.82-1.87 11-1.87 9.93 0 16.01 4.36 6.09 4.35 6.37 12.59h-13.3q-.37-2.53-2.62-4.26-2.24-1.73-6.64-1.73-3.47 0-5.53 1.31t-2.06 3.55q0 2.16 1.78 3.28t5.81 1.59l4.02.38q9.46 1.03 14.7 5.24t5.24 11.33q0 5.14-2.81 8.94-2.81 3.79-7.95 5.8-5.15 2.01-12.08 2.01m85.55-1.59h-16.85l-16.19-23.96h-7.21l20.87-27.34h15.73l-19.66 25.46.19-7.3Zm-38.01 0h-14.97v-68.34h14.97Zm62.27-.01h-14.98v-51.3h14.98Zm0-40.25h-21.81v-11.05h21.81Zm-9.18-16.1q-4.21 0-6.22-2.2t-2.01-5.57q0-3.47 2.01-5.67t6.22-2.2q4.22 0 6.23 2.2t2.01 5.67q0 3.37-2.01 5.57t-6.23 2.2m38.75 56.36h-15.07v-68.34h15.07Zm0-57.29h-21.16v-11.05h21.16Zm38.77 59.07q-6.74 0-11.99-2.11-5.24-2.1-8.84-5.75-3.61-3.66-5.48-8.38-1.87-4.73-1.87-9.97v-2.16q0-5.33 1.92-10.15t5.61-8.47q3.7-3.66 8.94-5.76 5.25-2.11 11.71-2.11 6.64 0 11.84 2.11 5.19 2.1 8.84 5.76 3.66 3.65 5.62 8.47 1.97 4.82 1.97 10.15v2.16q0 5.24-1.88 9.97-1.87 4.72-5.47 8.38-3.61 3.65-8.85 5.75-5.24 2.11-12.07 2.11m0-12.64q4.4 0 7.3-1.87t4.44-5.24q1.55-3.37 1.55-7.49 0-4.4-1.59-7.73-1.59-3.32-4.54-5.28-2.95-1.97-7.16-1.97-4.12 0-7.12 1.97-2.99 1.96-4.54 5.28-1.54 3.33-1.54 7.73 0 4.12 1.49 7.49 1.5 3.37 4.5 5.24 2.99 1.87 7.21 1.87"/><rect width="487.098" height="109.61" x="373.171" y="317.74" fill="none" rx="0" ry="0" transform="translate(453.96 402.41)"/><path fill="#d2dbc8" d="M796.702 782.9c-1.35-1.19-12.666-5.41-18.426-7.38a23.4 23.4 0 0 0 4.227-8.352c.862-.854 1.49-2.43 1.548-3.956a4.38 4.38 0 0 0-1.095-3.264c0-.394 2.416-5.51.24-11.33-2.408-6.452-7.321-8.015-10.073-8.015-3.388 0-6.41 1.928-7.84 3.008a5.1 5.1 0 0 0-3.395-1.51c-2.41 0-5.096 1.54-6.935 5.62-2.533 5.621-.416 10.753.219 12.556a3.94 3.94 0 0 0-1.037 2.774c.008 1.526.73 3.241 1.716 4.16.409 1.534 1.54 5.155 3.95 8.308-11.68 4.395-17.893 6.906-18.463 7.46-1.314 1.286-3.54 11.418-4.438 15.09a1.095 1.095 0 0 0 1.073 1.365h8.928l1.073 4.453c.117.49.562.84 1.073.84h40.318c.511 0 .95-.35 1.073-.847l1.073-4.453h8.556a1.095 1.095 0 0 0 1.102-1.095c0-.132-3.066-14.199-4.467-15.432m-38.793-16.57q-.11-.403-.452-.658c-.438-.292-1.11-1.497-1.11-2.628 0-1.468.95-1.504.95-1.504.218-.015 1.963-3.577 2.583-5.658a22 22 0 0 0 .855-4.117c1.54 1.27 3.679 2.752 8.687 2.716 4.745-.037 7.497-3.446 8.051-3.942 1.898 2.723 3.227 10.95 3.27 11 .03.052 1.169.052 1.096 1.592-.051 1.263-.643 2.307-.971 2.533q-.336.248-.438.657c-.511 2.3-3.46 12.067-11.395 12.067-8.089 0-10.826-10.79-11.133-12.06m30.587 36.194h-38.573l-2.993-13.76h44.574Z"/></g><path fill="transparent" stroke="transparent" stroke-width="2.6" d="M250 607.02h1500v285.96H250z"/></g></svg>